<?xml version="1.0" encoding="UTF-8"?>
<svg width="35px" height="35px" viewBox="0 0 35 35" version="1.1" xmlns="http://www.w3.org/2000/svg" xmlns:xlink="http://www.w3.org/1999/xlink">
    <!-- Generator: Sketch 49.3 (51167) - http://www.bohemiancoding.com/sketch -->
    <title>Shape</title>
    <desc>Created with Sketch.</desc>
    <defs></defs>
    <g id="Page-1" stroke="none" stroke-width="1" fill="none" fill-rule="evenodd">
        <g id="Settlements" transform="translate(-127.000000, -674.000000)" fill="#565656" fill-rule="nonzero">
            <path d="M159.257577,682.074861 C158.884805,681.49152 158.109739,681.320832 157.526419,681.693618 C156.943099,682.066404 156.772417,682.841497 157.145189,683.424838 C160.74648,689.112336 160.117661,696.502573 155.60723,701.499813 C151.0968,706.497053 143.809649,707.877153 137.784384,704.87525 C131.759118,701.873346 128.471709,695.224797 129.744069,688.614287 C131.016429,682.003777 136.536875,677.050644 143.245926,676.499957 L143.245926,680.249893 C138.300437,680.801909 134.30522,684.537664 133.422709,689.43516 C132.540198,694.332655 134.980109,699.22808 139.421825,701.471757 C143.86354,703.715435 149.25156,702.774191 152.669586,699.15748 C156.087613,695.540769 156.723408,690.108044 154.232844,685.799797 C153.873493,685.234491 153.132406,685.05296 152.552482,685.388188 C151.972559,685.723416 151.759973,686.456223 152.070458,687.049776 C154.029285,690.36232 153.593866,694.565898 150.997668,697.406586 C148.40147,700.247273 144.254061,701.058098 140.779247,699.404303 C137.304434,697.750508 135.318076,694.020392 135.885241,690.214011 C136.452407,686.407631 139.43993,683.418696 143.245926,682.849848 L143.245926,686.674782 C140.808172,687.30423 139.218733,689.648214 139.535974,692.145939 C139.853216,694.643663 141.978158,696.515842 144.49586,696.515842 C147.013562,696.515842 149.138504,694.643663 149.455745,692.145939 C149.772987,689.648214 148.183548,687.30423 145.745794,686.674782 L145.745794,675.249979 C145.745794,674.559634 145.186179,674 144.49586,674 C136.502648,674.002216 129.526891,679.420621 127.546969,687.165016 C125.567047,694.90941 129.086265,703.01114 136.097558,706.849663 C143.108851,710.688187 151.829922,709.287737 157.287011,703.447012 C162.7441,697.606288 163.549993,688.810022 159.245078,682.074861 L159.257577,682.074861 Z M146.995727,691.499699 C146.995727,692.880387 145.876499,693.999656 144.49586,693.999656 C143.115221,693.999656 141.995993,692.880387 141.995993,691.499699 C141.995993,690.119011 143.115221,688.999742 144.49586,688.999742 C145.876499,688.999742 146.995727,690.119011 146.995727,691.499699 Z" id="Shape"></path>
        </g>
    </g>
</svg>