<svg width="57" height="57" viewBox="0 0 57 57" fill="none" xmlns="http://www.w3.org/2000/svg">
<path fill-rule="evenodd" clip-rule="evenodd" d="M23.1429 46H21.4286C19.962 45.9983 18.4954 45.6474 17.1866 44.9727C15.4406 44.0741 13.9826 42.6041 13.0783 40.848C12.4329 39.595 12.0651 38.1915 12.0077 36.7775C12.0026 36.6436 12 36.5097 12 36.375V32.875C12.0017 32.8461 12.0017 32.8181 12.0043 32.7893C12.0343 32.476 12.2409 32.1881 12.5289 32.0665C12.6069 32.0341 12.6891 32.0123 12.7731 32.0044C12.8014 32.0018 12.8289 32.0018 12.8571 32H21.4286C21.4569 32.0018 21.4843 32.0026 21.5126 32.0044C21.54 32.0088 21.5683 32.0114 21.5957 32.0166C21.816 32.0613 22.0166 32.1986 22.1409 32.3885C22.2189 32.5084 22.2677 32.6466 22.2814 32.7893C22.284 32.8181 22.284 32.8461 22.2857 32.875C22.2857 33.4604 22.2831 34.0457 22.2857 34.6311C22.2883 34.9129 22.4323 35.1894 22.6603 35.3477C22.8017 35.4466 22.9714 35.5 23.1446 35.5L23.2286 35.5044L23.3117 35.5175L23.3931 35.5376L23.472 35.5674L23.5483 35.6041L23.6203 35.6479L23.688 35.6995L23.7497 35.7573L23.8063 35.8211L23.856 35.8902L23.8997 35.9637L23.9349 36.0416L23.9631 36.1221L23.9837 36.2052L23.9957 36.2901L23.9983 36.333L24 36.375V45.125C23.9983 45.1539 23.9983 45.1819 23.9957 45.2107C23.9631 45.5511 23.7189 45.8609 23.3914 45.9624C23.3383 45.979 23.2826 45.9904 23.2269 45.9956C23.1994 45.9983 23.1711 45.9983 23.1429 46Z" fill="#1CCEDE"/>
<path fill-rule="evenodd" clip-rule="evenodd" d="M35.25 46H33.4643C33.4348 45.9982 33.4062 45.9982 33.3768 45.9956C33.058 45.965 32.7634 45.7541 32.6393 45.4601C32.6062 45.3805 32.5839 45.2965 32.5759 45.2108C32.5732 45.1819 32.5732 45.1539 32.5714 45.125V36.375L32.5732 36.333L32.5759 36.2892L32.5821 36.2472L32.5884 36.2044L32.5991 36.1632L32.6098 36.1213L32.6241 36.081L32.6393 36.0399L32.658 36.0023L32.6768 35.9629L32.6991 35.9261L32.7223 35.8885L32.7473 35.8552L32.7741 35.8202L32.8027 35.7887L32.833 35.7564L32.8652 35.7275L32.8982 35.6986L32.9321 35.6733L32.9679 35.6479L33.0054 35.626L33.0437 35.6033L33.0821 35.5849L33.1223 35.5665L33.1634 35.5525L33.2054 35.5376L33.2473 35.5271L33.2902 35.5166L33.333 35.5105L33.3768 35.5044L33.4196 35.5018L33.4625 35.5C33.717 35.5 33.9643 35.3924 34.1348 35.2034C34.2768 35.045 34.3571 34.835 34.3571 34.6241V32.875C34.3589 32.8461 34.3589 32.8181 34.3616 32.7892C34.3839 32.5609 34.5027 32.3439 34.6839 32.1986C34.8188 32.0893 34.9884 32.021 35.1625 32.0044C35.192 32.0018 35.2205 32.0018 35.25 32H44.1786C44.208 32.0018 44.2366 32.0026 44.2661 32.0044C44.2946 32.0088 44.3241 32.0114 44.3527 32.0166C44.667 32.0779 44.9384 32.3159 45.033 32.6213C45.05 32.6755 45.0616 32.7324 45.067 32.7892C45.0696 32.8181 45.0696 32.8461 45.0714 32.875V36.375C45.0705 37.432 44.8937 38.4907 44.5455 39.49C43.9375 41.233 42.8063 42.7905 41.3375 43.9289C39.958 44.9972 38.2839 45.6946 36.5304 45.9186C36.1063 45.9729 35.6777 46 35.25 46ZM31.6786 44.25H26.3214V37.25H31.6786V44.25ZM43.2857 31.125H36.1429V25.875H43.2857V31.125ZM21.8571 31.125H14.7143V25.875H21.8571V31.125ZM35.25 25C35.2205 24.9983 35.192 24.9983 35.1625 24.9956C34.8429 24.965 34.5491 24.7541 34.425 24.4601C34.392 24.3805 34.3696 24.2965 34.3616 24.2107C34.3589 24.1819 34.3589 24.1539 34.3571 24.125V20.625C34.3589 19.1279 34.717 17.6307 35.4054 16.2946C36.0723 14.9987 37.0429 13.8551 38.2196 12.974C39.5768 11.9564 41.2116 11.294 42.9134 11.0796C43.333 11.0263 43.7571 11 44.1786 11H45.9643C45.9938 11.0018 46.0223 11.0026 46.0518 11.0044C46.0804 11.0088 46.1098 11.0114 46.1384 11.0166C46.3679 11.0613 46.5768 11.1986 46.7062 11.3885C46.7875 11.5084 46.8384 11.6466 46.8527 11.7893C46.8554 11.8181 46.8554 11.8461 46.8571 11.875V20.625L46.8554 20.667L46.8527 20.7107L46.8464 20.7528L46.8402 20.7956L46.8295 20.8368L46.8187 20.8787L46.8045 20.919L46.7893 20.9601L46.7705 20.9978L46.7518 21.0371L46.7295 21.0739L46.7062 21.1115L46.6813 21.1447L46.6545 21.1798L46.6259 21.2113L46.5955 21.2436L46.5634 21.2725L46.5304 21.3014L46.4964 21.3267L46.4607 21.3521L46.4232 21.374L46.3848 21.3968L46.3464 21.4151L46.3063 21.4335L46.2652 21.4475L46.2232 21.4624L46.1813 21.4729L46.1384 21.4834L46.0955 21.4895L46.0518 21.4956L46.0089 21.4983L45.9661 21.5C45.6759 21.5 45.3902 21.6479 45.2268 21.8824C45.1259 22.0259 45.0714 22.2 45.0714 22.3759V24.125C45.0696 24.1539 45.0696 24.1819 45.067 24.2107C45.033 24.5511 44.7786 24.8609 44.4375 24.9624C44.3821 24.979 44.3241 24.9904 44.2661 24.9956C44.2375 24.9983 44.208 24.9983 44.1786 25H35.25ZM22.75 25H13.8214C13.792 24.9983 13.7634 24.9983 13.7339 24.9956C13.4143 24.965 13.1205 24.7541 12.9964 24.4601C12.9634 24.3805 12.9411 24.2965 12.933 24.2107C12.9304 24.1819 12.9304 24.1539 12.9286 24.125C12.9286 23.5396 12.9312 22.9542 12.9286 22.3689C12.9268 22.0915 12.7804 21.8194 12.55 21.6593C12.4018 21.5569 12.2223 21.5017 12.042 21.5H12.0339L11.9911 21.4983L11.9464 21.4956L11.9045 21.4895L11.8598 21.4825L11.8187 21.4729L11.775 21.4624L11.7348 21.4475L11.6929 21.4326L11.6536 21.4151L11.6134 21.3959L11.5768 21.374L11.5384 21.3521L11.5036 21.3267L11.4679 21.3005L11.4366 21.2725L11.4036 21.2428L11.3741 21.2113L11.3446 21.1789L11.3187 21.1447L11.2929 21.1097L11.2705 21.0739L11.2473 21.0363L11.2295 20.9978L11.2107 20.9584L11.1955 20.919L11.1813 20.8779L11.1705 20.8368L11.1598 20.7948L11.1536 20.7528L11.1473 20.7099L11.1446 20.667L11.1429 20.625V11.875C11.1446 11.8461 11.1446 11.8181 11.1473 11.7893C11.1813 11.4489 11.4357 11.1391 11.7768 11.0376C11.8321 11.021 11.8902 11.0096 11.9482 11.0044C11.9777 11.0018 12.0063 11.0018 12.0357 11C12.6366 11 13.2366 11 13.8375 11C15.3768 11.0035 16.9116 11.3622 18.2804 12.0465C19.5938 12.7036 20.7545 13.6565 21.6464 14.808C22.6652 16.1223 23.3295 17.6946 23.5536 19.3247C23.6134 19.7561 23.6429 20.191 23.6429 20.625V24.125C23.6411 24.1539 23.6411 24.1819 23.6384 24.2107C23.6071 24.524 23.392 24.8119 23.092 24.9335C23.0107 24.9659 22.925 24.9877 22.8375 24.9956C22.8089 24.9983 22.7795 24.9983 22.75 25ZM10.25 19.75H4.89286C4.86339 19.7483 4.83482 19.7483 4.80536 19.7456C4.45804 19.7124 4.14196 19.463 4.03839 19.1287C4.02143 19.0745 4.00982 19.0176 4.00446 18.9608C4.00179 18.9319 4.00179 18.9039 4 18.875V13.625C4.00179 13.5961 4.00179 13.5681 4.00446 13.5392C4.03839 13.1989 4.29286 12.8891 4.63393 12.7876C4.68929 12.771 4.74732 12.7596 4.80536 12.7544C4.83482 12.7517 4.86339 12.7517 4.89286 12.75H10.25V19.75ZM53.1071 19.75H47.75V12.75H53.1071C53.1366 12.7517 53.1652 12.7526 53.1946 12.7544C53.2232 12.7587 53.2527 12.7614 53.2812 12.7666C53.5107 12.8112 53.7196 12.9486 53.8491 13.1385C53.9304 13.2584 53.9813 13.3966 53.9955 13.5392C53.9982 13.5681 53.9982 13.5961 54 13.625V18.875C53.9982 18.9039 53.9982 18.9319 53.9955 18.9608C53.9643 19.2731 53.7491 19.5619 53.4491 19.6835C53.3679 19.7159 53.2821 19.7378 53.1946 19.7456C53.1661 19.7483 53.1366 19.7483 53.1071 19.75Z" fill="#505050"/>
</svg>
