<svg width="39" height="39" viewBox="0 0 39 39" fill="none" xmlns="http://www.w3.org/2000/svg">
<path fill-rule="evenodd" clip-rule="evenodd" d="M4.33012 20.5936H1.07943C0.125897 20.5936 -0.350871 19.4242 0.299267 18.7313L18.7632 0.32482C19.1533 -0.108273 19.8467 -0.108273 20.2802 0.32482L38.7007 18.7313C39.3509 19.4242 38.8741 20.5936 37.9206 20.5936H34.6699V37.9173C34.6699 38.5236 34.1931 39 33.5863 39H5.41368C4.80689 39 4.33012 38.5236 4.33012 37.9173V20.5936ZM35.32 18.4281L19.5 2.62021L3.67998 18.4281H5.41368C6.02048 18.4281 6.49725 18.9045 6.49725 19.5108V36.8345H32.5028V19.5108C32.5028 18.9045 32.9795 18.4281 33.5863 18.4281H35.32Z" fill="#565656"/>
<path d="M9.83371 33.7658C10.6183 32.9725 11.8824 32.9725 12.6671 33.7658C14.2799 35.3967 16.9389 35.3967 18.5517 33.7658C19.3363 32.9725 20.6005 32.9725 21.3851 33.7658C22.2133 34.6033 23.2594 35 24.3492 35C25.439 35 26.4851 34.6033 27.3133 33.7658C28.0979 32.9725 29.3621 32.9725 30.1467 33.7658C31.1492 34.7796 32.6749 33.1928 31.6723 32.2231C30.0595 30.5923 27.4005 30.5923 25.7877 32.2231C25.0031 33.0165 23.7389 33.0165 22.9543 32.2231C21.3415 30.5923 18.6825 30.5923 17.0697 32.2231C16.285 33.0165 15.0209 33.0165 14.2363 32.2231C12.6235 30.5923 9.96448 30.5923 8.35165 32.2231C7.30549 33.2369 8.83114 34.7796 9.83371 33.7658C9.39781 34.2066 10.6183 33.0165 9.83371 33.7658C9.39781 34.2066 10.6183 33.0165 9.83371 33.7658C9.39781 34.2066 10.6183 33.0165 9.83371 33.7658C9.39781 34.2066 10.6183 33.0165 9.83371 33.7658C9.39781 34.2066 10.6183 33.0165 9.83371 33.7658Z" fill="#565656"/>
<path d="M9.83371 29.7658C10.6183 28.9725 11.8824 28.9725 12.6671 29.7658C14.2799 31.3967 16.9389 31.3967 18.5517 29.7658C19.3363 28.9725 20.6005 28.9725 21.3851 29.7658C22.2133 30.6033 23.2594 31 24.3492 31C25.439 31 26.4851 30.6033 27.3133 29.7658C28.0979 28.9725 29.3621 28.9725 30.1467 29.7658C31.1492 30.7796 32.6749 29.1928 31.6723 28.2231C30.0595 26.5923 27.4005 26.5923 25.7877 28.2231C25.0031 29.0165 23.7389 29.0165 22.9543 28.2231C21.3415 26.5923 18.6825 26.5923 17.0697 28.2231C16.285 29.0165 15.0209 29.0165 14.2363 28.2231C12.6235 26.5923 9.96448 26.5923 8.35165 28.2231C7.30549 29.2369 8.83114 30.7796 9.83371 29.7658C9.39781 30.2066 10.6183 29.0165 9.83371 29.7658C9.39781 30.2066 10.6183 29.0165 9.83371 29.7658C9.39781 30.2066 10.6183 29.0165 9.83371 29.7658C9.39781 30.2066 10.6183 29.0165 9.83371 29.7658C9.39781 30.2066 10.6183 29.0165 9.83371 29.7658Z" fill="#565656"/>
<path d="M9.83371 24.7658C10.6183 23.9725 11.8824 23.9725 12.6671 24.7658C14.2799 26.3967 16.9389 26.3967 18.5517 24.7658C19.3363 23.9725 20.6005 23.9725 21.3851 24.7658C22.2133 25.6033 23.2594 26 24.3492 26C25.439 26 26.4851 25.6033 27.3133 24.7658C28.0979 23.9725 29.3621 23.9725 30.1467 24.7658C31.1492 25.7796 32.6749 24.1928 31.6723 23.2231C30.0595 21.5923 27.4005 21.5923 25.7877 23.2231C25.0031 24.0165 23.7389 24.0165 22.9543 23.2231C21.3415 21.5923 18.6825 21.5923 17.0697 23.2231C16.285 24.0165 15.0209 24.0165 14.2363 23.2231C12.6235 21.5923 9.96448 21.5923 8.35165 23.2231C7.30549 24.2369 8.83114 25.7796 9.83371 24.7658C9.39781 25.2066 10.6183 24.0165 9.83371 24.7658C9.39781 25.2066 10.6183 24.0165 9.83371 24.7658C9.39781 25.2066 10.6183 24.0165 9.83371 24.7658C9.39781 25.2066 10.6183 24.0165 9.83371 24.7658C9.39781 25.2066 10.6183 24.0165 9.83371 24.7658Z" fill="#1CCEDE"/>
</svg>
