<?xml version="1.0" encoding="UTF-8"?>
<svg width="45px" height="43px" viewBox="0 0 45 43" version="1.1" xmlns="http://www.w3.org/2000/svg" xmlns:xlink="http://www.w3.org/1999/xlink">
    <!-- Generator: Sketch 49.3 (51167) - http://www.bohemiancoding.com/sketch -->
    <title>Group</title>
    <desc>Created with Sketch.</desc>
    <defs></defs>
    <g id="Page-1" stroke="none" stroke-width="1" fill="none" fill-rule="evenodd">
        <g id="Settlements" transform="translate(-122.000000, -514.000000)">
            <g id="Group" transform="translate(122.000000, 514.000000)">
                <g id="noun_property_1353691" fill="#565656" fill-rule="nonzero">
                    <path d="M17.3300971,40.7320289 L9.90291262,40.7320289 L9.90291262,31.0017014 C9.90291262,29.1726925 11.5776699,27.7094853 13.6165049,27.7094853 C14.6359223,27.7094853 15.5825243,28.0752871 16.2378641,28.66057 C16.8932039,29.2458528 17.3300971,30.1237771 17.3300971,31.0017014 L17.3300971,40.7320289 Z M43.6165049,16.2964696 L27.3786408,1.81071884 C24.684466,-0.603572948 20.315534,-0.603572948 17.6213592,1.81071884 L1.38349515,16.2964696 C0.509708738,17.1012335 0,18.1254785 0,19.2228839 C0,20.3202892 0.509708738,21.4176946 1.38349515,22.1492982 C2.18446602,22.8809017 3.27669903,23.3198639 4.44174757,23.3198639 C5.24271845,23.3198639 5.97087379,23.1003828 6.62621359,22.8077414 C6.62621359,22.8809017 6.62621359,22.8809017 6.62621359,22.9540621 L6.62621359,39.927265 L5.53398058,39.927265 C4.95145631,39.927265 4.51456311,40.5857082 4.51456311,41.4636325 C4.51456311,42.2683964 4.95145631,43 5.53398058,43 L39.4660194,43 C40.0485437,43 40.4854369,42.3415568 40.4854369,41.4636325 C40.4854369,40.6588686 40.0485437,39.927265 39.4660194,39.927265 L38.3737864,39.927265 L38.3737864,23.0272225 C38.3737864,22.9540621 38.3737864,22.9540621 38.3737864,22.8809017 C39.0291262,23.2467035 39.8300971,23.3930242 40.5582524,23.3930242 C41.6504854,23.3930242 42.7427184,23.0272225 43.6165049,22.2224585 C44.4902913,21.4176946 45,20.3934496 45,19.2960442 C44.9271845,18.1986389 44.4902913,17.1012335 43.6165049,16.2964696 Z M42.1601942,19.8081667 C42.0873786,19.9544875 41.9417476,20.1008082 41.7961165,20.2471289 C41.0679612,20.9055721 39.9029126,20.9055721 39.1747573,20.2471289 L24.3932039,6.93194385 C23.3009709,5.98085921 21.6990291,5.98085921 20.6796117,6.93194385 L5.75242718,20.2471289 C5.46116505,20.5397703 4.95145631,20.7592514 4.44174757,20.7592514 C3.93203883,20.7592514 3.49514563,20.6129307 3.13106796,20.2471289 C2.83980583,20.0276478 2.69417476,19.661846 2.69417476,19.2960442 C2.69417476,18.9302425 2.83980583,18.5644407 3.13106796,18.3449596 L19.368932,3.78604849 C21.0436893,2.24968099 23.8834951,2.24968099 25.5582524,3.78604849 L41.7961165,18.3449596 C42.0873786,18.637601 42.2330097,18.9302425 42.2330097,19.2960442 C42.3058252,19.442365 42.2330097,19.661846 42.1601942,19.8081667 Z M30.5825243,32.3917482 C30.5825243,32.5380689 30.4368932,32.75755 30.2184466,32.75755 L27.3058252,32.75755 C27.0873786,32.75755 26.9417476,32.6112293 26.9417476,32.3917482 L26.9417476,29.7579753 C26.9417476,29.5384943 27.0873786,29.3921735 27.3058252,29.3921735 L30.2184466,29.3921735 C30.4368932,29.3921735 30.5825243,29.5384943 30.5825243,29.7579753 L30.5825243,32.3917482 Z M30.5825243,28.7337303 C30.5825243,28.880051 30.4368932,29.0995321 30.2184466,29.0995321 L27.3058252,29.0995321 C27.0873786,29.0995321 26.9417476,28.9532114 26.9417476,28.7337303 L26.9417476,26.0999575 C26.9417476,25.9536368 27.0873786,25.7341557 27.3058252,25.7341557 L30.2184466,25.7341557 C30.4368932,25.7341557 30.5825243,25.8804764 30.5825243,26.0999575 L30.5825243,28.7337303 Z M34.8058252,32.3917482 C34.8058252,32.5380689 34.6601942,32.75755 34.4417476,32.75755 L31.5291262,32.75755 C31.3106796,32.75755 31.1650485,32.6112293 31.1650485,32.3917482 L31.1650485,29.7579753 C31.1650485,29.5384943 31.3106796,29.3921735 31.5291262,29.3921735 L34.4417476,29.3921735 C34.6601942,29.3921735 34.8058252,29.5384943 34.8058252,29.7579753 L34.8058252,32.3917482 Z M34.8058252,28.7337303 C34.8058252,28.880051 34.6601942,29.0995321 34.4417476,29.0995321 L31.5291262,29.0995321 C31.3106796,29.0995321 31.1650485,28.9532114 31.1650485,28.7337303 L31.1650485,26.0999575 C31.1650485,25.9536368 31.3106796,25.7341557 31.5291262,25.7341557 L34.4417476,25.7341557 C34.6601942,25.7341557 34.8058252,25.8804764 34.8058252,26.0999575 L34.8058252,28.7337303 Z" id="Shape"></path>
                </g>
                <rect id="Rectangle-12" fill="#1CCEDE" x="10" y="25" width="9" height="16"></rect>
            </g>
        </g>
    </g>
</svg>